<svg id="Layer_3" data-name="Layer 3" xmlns="http://www.w3.org/2000/svg" viewBox="0 0 720 720"><defs><style>.cls-1{fill:#fff;}</style></defs><title>cupid</title><path class="cls-1" d="M498.65,535.08l-13.92-9.36-.36,4.56-33.6-7.2,9.84-2.64c16.44-5.88,16.92-20.28,16.92-20.28l1-13,.36-24.36,1.56-5.88,3.72-3.24c7-1,4.92,3.72,4.92,3.72-2.24,2.59-4.32-.84-4.32-.84,1,5.52,5.64,2.64,5.64,2.64,4.2-9.6-6.72-7.56-6.72-7.56l-28,19.44c-4.56-4.32-12.57-1.8-12.57-1.8h-6.48l-4.2-1.32-23.06-14.09c5.58-4.14,9.26-16.45,9.26-16.45l2.7-.18,10.8,6.3c6.84,3.78,6.3-3.24,6.3-3.24h4a12.36,12.36,0,0,1-2.16-5.4c4.5,3.6,5.58,2.34,5.58,2.34l-.18-5.76h4.86c3.42-1.62.54-6.48.54-6.48-3.06-3.06-.72-5.4-.72-5.4l8.28-7.38c8.28-7,5.4-13.68,5.4-13.68l5,2-3.42-5.76,5.76-2.16L461.09,384v-4.32l-10.8-7.74,3.06-1.44-5.76-2.7-2.16-4.68L444,365.64h-2.52c-1.8-2.52-9.18-5.94-9.18-5.94L431,361.32h-4.86l-5.94,1.08-7.92-1.08,3.42,3.6-8.1.9,2.7,1.62L401,373.2l6.12.18c-4.86,3.6-6.12,13.86-6.12,13.86-1.34,0-6.66-2.7-6.66-2.7-.18,2.7,2.88,8.64,2.88,8.64L394,397.32c4.86,1.26,5.32,4.68,5.32,4.68l-3,.18v2.52l2.7.54c1.8,4.68-5.76,5-5.76,5-8.64-7.2-19.44,0-19.44,0A8.36,8.36,0,0,1,375,402.9c4.05-7.2,13.59-17.1,13.59-17.1,6.66-10.08,3.06-20.88,3.06-20.88-5.76-12.78-4-29-4-29,.18-7.2,10.26-30.87,10.26-30.87-10.89,7.2-18.18,26.46-18.18,26.46.27-6.66,8.37-22.14,8.37-22.14-10.62,2.7-15.39,23.76-15.39,23.76.45-9.81,4-20.91,4-20.91-9.36,3.12-11.28,23.52-11.28,23.52-1.44-2.88,1.68-18,1.68-18-5,2.88-9.84,20.88-9.84,20.88-2.64-1.68-2.56-3.6-2.56-3.6V226.32H352l-.36,105.36c-3.08-.48-15-22.56-15-22.56-4.68,13.32,12.84,34.08,12.84,34.08-9-4.56-18.72-19.56-18.72-19.56-5.52,11.4,16.92,31,16.92,31-6.6-2.16-21.84-20.16-21.84-20.16-3.12,10.92,19,31.2,19,31.2-7.92-1.2-20.52-17.52-20.52-17.52-3.48,10.8,17.4,26.88,17.4,26.88-7.8-2.28-17.52-13.32-17.52-13.32-1.56,11.88,17.52,26.16,17.52,26.16-7.92-1.92-17.28-12.24-17.28-12.24-.48,12,16.8,26.88,16.8,26.88-6.24-1.44-15.36-9.84-15.36-9.84,3.36,17.52,24.72,30.24,24.72,30.24-10.8,9.84-47.28-2.4-47.28-2.4-36-4.08-44.64,31.92-44.64,31.92l-.36,30.24c.48,19.68-15.24,31.44-15.24,31.44-18.84,12.48-22.2,40.68-22.2,40.68-1.08,6.24-12.6,11.4-12.6,11.4-3.48,5.28,5.28,14,5.28,14v13.32c4.44,9,16.68,8.16,16.68,8.16l-.12-3.24c-6.6-6.72-4.56-12.72-4.56-12.72,3.84-4.44,5.64-14.28,5.64-14.28l8.28-11.88,4.08,4v-9.2l11.16-11.08,28.92,1.68c34,3.72,42.48-4,42.48-4,15.6-15.72-5.16-57.36-5.16-57.36,43.56,7.08,60-6.84,60-6.84,8.88,15.12,26.07,27,26.07,27l-12.87,8.1-8.73.18-2.07-3.87-1.71-.81.81,3.33-1.35-.36-1.08-2.7-2.16-.9.63,3.42h-.9l-.72-3.51-2.25-.9,1.17,3.78-1.08-.27L373,505.86l-2.43-1.26,1.89,4.14-1.26-.45-1.8-3.78-2.52-.54,2,5.76-3.73,3.83,2.29.13,3.33-3.24,1.17.28-3.16,2.85,1.9.74,3.42-3.42,1.17.27L371.36,515l1.44.54,4.14-3.78,1.62.27-4,4,2.61.36,2.79-3.33,1.8.27-3.69,4,2.25.45,3.69-3.18,6.72.12L352,540.6c-5,3.24-3.72,11,1.15,10.44s2.33-4.92,2.33-4.92c.32,2.52-1.44,2.4-1.44,2.4-4.08-.24-3.37-3.09-.89-6.12,1.57-1.92,7-1.08,7-1.08a101.13,101.13,0,0,1,31.44,10.32c8.52,4.08,19.32,2.28,19.32,2.28,10.92-4,21-19.56,21-19.56,11.88,1.92,14.76-8,14.76-8L484,533.88l-.85,5.48Zm-218.88-14.4s11.52-10.68,11.16-14.4c0,0,5.64,11.52,8.28,12.84C299.21,519.12,284.33,519.84,279.77,520.68Zm127.15-45.45L435,484.8l-13.5,9.31Zm2.57,30.09c12.12,8.28,13.56,13.92,13.56,13.92l-25.32-5.4Zm3,40.68c-8.4,6.24-20.28,0-20.28,0-11.64-5.64-34.32-6.72-34.32-6.72l35.52-22.68,1-1L423.05,522l4.2,7.44Zm31.2-28.56s.24-7.08-9.6-9.6l-11-11.28,1-.6,13.56-9.36s5.4,4.44,10.2,4.68c0,0,3.72-1.32,3.36-4.68,0,0,3.12-1.92,2.4-4.44a2.42,2.42,0,0,0,1.32-2.74s2.76-1.58,2.16-5.78l20.4-15.24s-6.36,36.84-6.24,43.08c0,0-1.32,11.52-23.28,15.36Z"/><path class="cls-1" d="M131,226.32h5l.24,378s10.32-17,29-15.6c0,0,22.08-1.68,27.36,27.84V629s2.4,22.32-34.56,49.44l-22.8,15.6-37-25S71.45,649,74.81,619.44c0,0,2.4-31.92,30.48-29.28,0,0,12.72-1,25.68,13.44Z"/><path class="cls-1" d="M550.88,225.32h4.49l.21,336.36s9.18-15.17,25.84-13.89c0,0,19.65-1.49,24.35,24.78v11.1s2.13,19.86-30.76,44l-20.29,13.89-32.88-22.21s-23.92-17.94-20.93-44.21c0,0,2.13-28.4,27.12-26,0,0,11.32-.86,22.85,11.95Z"/><path class="cls-1" d="M52.19,199.32h3.87L56.25,490s7.94-13.1,22.33-12c0,0,17-1.3,21,21.41v9.6s1.84,17.16-26.58,38l-17.54,12-28.43-19.2S6.41,524.38,9,501.67c0,0,1.84-24.55,23.44-22.52,0,0,9.78-.73,19.75,10.34Z"/><path class="cls-1" d="M207.22,88.88h3.26l.16,244.6s6.67-11,18.79-10.1c0,0,14.29-1.08,17.7,18v8.07s1.55,14.45-22.36,32L210,391.56,186.1,375.41s-17.39-13.05-15.22-32.15c0,0,1.55-20.65,19.72-18.94,0,0,8.23-.63,16.62,8.69Z"/><path class="cls-1" d="M416.26,10.28h3.26l.15,244.6s6.68-11,18.79-10.1c0,0,14.29-1.08,17.71,18v8.07s1.55,14.45-22.37,32L419.05,313l-23.91-16.15s-17.4-13.05-15.22-32.15c0,0,1.55-20.65,19.72-18.94,0,0,8.23-.63,16.62,8.69Z"/><path class="cls-1" d="M649.54,121.32h3.26l.15,244.6s6.68-11,18.79-10.1c0,0,14.29-1.09,17.71,18v8.07s1.55,14.45-22.37,32L652.33,424l-23.91-16.15S611,394.8,613.2,375.7c0,0,1.55-20.65,19.72-18.95,0,0,8.23-.62,16.62,8.7Z"/><path class="cls-1" d="M252.94,177.69h2.55l.12,191s5.21-8.61,14.67-7.88c0,0,11.15-.85,13.82,14.07v6.3s1.21,11.28-17.46,25L255.12,414,236.45,401.4s-13.58-10.18-11.88-25.1c0,0,1.21-16.13,15.4-14.79,0,0,6.42-.49,13,6.79Z"/><path class="cls-1" d="M480.75,107.16h2.55l.12,191s5.21-8.61,14.67-7.88c0,0,11.16-.85,13.82,14.07v6.3s1.22,11.28-17.46,25l-11.52,7.88-18.67-12.61s-13.58-10.19-11.88-25.1c0,0,1.21-16.13,15.4-14.79,0,0,6.42-.49,13,6.79Z"/></svg>