<svg width="359" height="246" viewBox="0 0 359 246" fill="none" xmlns="http://www.w3.org/2000/svg">
<path d="M248.632 153.797L241.692 149.13L241.512 151.404L224.759 147.814L229.665 146.497C237.862 143.565 238.102 136.385 238.102 136.385L238.6 129.903L238.78 117.757L239.558 114.825L241.413 113.21C244.903 112.711 243.866 115.065 243.866 115.065C242.749 116.356 241.712 114.646 241.712 114.646C242.21 117.398 244.524 115.962 244.524 115.962C246.618 111.176 241.173 112.193 241.173 112.193L227.212 121.886C224.938 119.732 220.945 120.988 220.945 120.988H217.714L215.619 120.33L204.121 113.305C206.904 111.24 208.739 105.102 208.739 105.102L210.085 105.013L215.47 108.154C218.88 110.039 218.611 106.538 218.611 106.538H220.606C220.037 105.739 219.668 104.816 219.529 103.846C221.772 105.641 222.311 105.013 222.311 105.013L222.221 102.141H224.644C226.35 101.333 224.914 98.9097 224.914 98.9097C223.388 97.384 224.555 96.2172 224.555 96.2172L228.683 92.5375C232.812 89.0472 231.376 85.7165 231.376 85.7165L233.869 86.7137L232.163 83.8417L235.035 82.7647L229.905 78.4667V76.3127L224.52 72.4534L226.045 71.7354L223.173 70.3892L222.096 68.0557L221.383 69.3122H220.127C219.229 68.0557 215.55 66.3504 215.55 66.3504L214.901 67.1582H212.478L209.516 67.6967L205.567 67.1582L207.273 68.9532L203.234 69.4019L204.58 70.2097L199.943 73.0817L202.995 73.1714C200.571 74.9664 199.943 80.0822 199.943 80.0822C199.275 80.0822 196.622 78.7359 196.622 78.7359C196.533 80.0822 198.058 83.0439 198.058 83.0439L196.453 85.1082C198.876 85.7364 199.105 87.4417 199.105 87.4417L197.61 87.5314V88.7879L198.956 89.0572C199.853 91.3907 196.084 91.5502 196.084 91.5502C191.776 87.9602 186.391 91.5502 186.391 91.5502C186.2 90.9361 186.154 90.2862 186.256 89.6513C186.358 89.0164 186.605 88.4137 186.979 87.8904C188.999 84.3004 193.755 79.3642 193.755 79.3642C197.076 74.3382 195.281 68.9532 195.281 68.9532C192.409 62.5809 193.287 54.4935 193.287 54.4935C193.376 50.9035 198.402 39.1013 198.402 39.1013C192.972 42.6913 189.338 52.2946 189.338 52.2946C189.472 48.9738 193.511 41.2553 193.511 41.2553C188.216 42.6016 185.837 53.1023 185.837 53.1023C186.062 48.211 187.832 42.6764 187.832 42.6764C183.165 44.232 182.207 54.4037 182.207 54.4037C181.489 52.9677 183.045 45.4287 183.045 45.4287C180.552 46.8647 178.139 55.8397 178.139 55.8397C176.822 55.002 176.862 54.0447 176.862 54.0447V-0.154327H175.511L175.332 52.3793C173.796 52.14 167.852 41.1307 167.852 41.1307C165.519 47.7722 174.255 58.1233 174.255 58.1233C169.767 55.8497 164.921 48.3705 164.921 48.3705C162.168 54.0547 173.357 63.8275 173.357 63.8275C170.066 62.7505 162.467 53.7755 162.467 53.7755C160.912 59.2203 171.941 69.3321 171.941 69.3321C167.992 68.7338 161.71 60.5965 161.71 60.5965C159.974 65.9815 170.385 73.9991 170.385 73.9991C166.496 72.8623 161.65 67.3576 161.65 67.3576C160.872 73.2811 170.385 80.4013 170.385 80.4013C166.436 79.444 161.769 74.2983 161.769 74.2983C161.53 80.2816 170.146 87.7009 170.146 87.7009C167.035 86.9829 162.487 82.7946 162.487 82.7946C164.163 91.5303 174.813 97.8726 174.813 97.8726C169.428 102.779 151.239 96.6759 151.239 96.6759C133.289 94.6416 128.981 112.592 128.981 112.592L128.801 127.67C129.041 137.482 121.202 143.346 121.202 143.346C111.809 149.569 110.133 163.629 110.133 163.629C109.595 166.741 103.851 169.314 103.851 169.314C102.116 171.946 106.483 176.294 106.483 176.294V182.936C108.697 187.423 114.8 187.004 114.8 187.004L114.74 185.389C111.45 182.038 112.467 179.047 112.467 179.047C114.381 176.833 115.279 171.926 115.279 171.926L119.407 166.003L121.442 167.997V163.41L127.006 157.885L141.426 158.723C158.379 160.578 162.607 156.729 162.607 156.729C170.385 148.891 160.034 128.128 160.034 128.128C181.754 131.659 189.951 124.718 189.951 124.718C194.379 132.257 202.95 138.18 202.95 138.18L196.533 142.219L192.18 142.309L191.148 140.379L190.295 139.975L190.699 141.636L190.026 141.456L189.487 140.11L188.41 139.661L188.724 141.366H188.276L187.917 139.616L186.795 139.168L187.378 141.052L186.84 140.918L185.982 139.227L184.77 138.599L185.713 140.663L185.084 140.439L184.187 138.554L182.93 138.285L183.928 141.157L182.068 143.067L183.21 143.132L184.87 141.516L185.453 141.656L183.878 143.077L184.825 143.446L186.53 141.74L187.114 141.875L185.164 143.785L185.882 144.054L187.946 142.169L188.754 142.304L186.76 144.298L188.061 144.478L189.452 142.817L190.35 142.952L188.51 144.947L189.632 145.171L191.472 143.585L194.822 143.645L175.511 156.549C173.018 158.165 173.656 162.034 176.085 161.755C178.513 161.475 177.246 159.302 177.246 159.302C177.406 160.558 176.528 160.498 176.528 160.498C174.494 160.379 174.848 158.957 176.085 157.447C176.867 156.489 179.575 156.908 179.575 156.908C185.047 157.751 190.344 159.49 195.251 162.054C199.499 164.088 204.884 163.191 204.884 163.191C210.329 161.196 215.355 153.438 215.355 153.438C221.279 154.395 222.715 149.449 222.715 149.449L241.328 153.199L240.904 155.931L248.632 153.797ZM139.496 146.617C139.496 146.617 145.24 141.292 145.061 139.437C145.061 139.437 147.873 145.181 149.189 145.839C149.189 145.839 141.77 146.198 139.496 146.617V146.617ZM202.895 123.955L216.896 128.727L210.165 133.369L202.895 123.955ZM204.176 138.958C210.219 143.087 210.937 145.899 210.937 145.899L198.313 143.206L204.176 138.958ZM205.672 159.242C201.484 162.353 195.56 159.242 195.56 159.242C189.756 156.43 178.448 155.891 178.448 155.891L196.159 144.583L196.657 144.084L210.937 147.275L213.032 150.985L205.672 159.242ZM221.229 145.001C221.229 145.001 221.348 141.471 216.442 140.215L210.957 134.59L211.456 134.291L218.217 129.624C218.217 129.624 220.91 131.838 223.303 131.958C223.303 131.958 225.158 131.3 224.978 129.624C224.978 129.624 226.534 128.667 226.175 127.41C226.424 127.292 226.626 127.092 226.746 126.844C226.865 126.595 226.896 126.313 226.833 126.044C226.833 126.044 228.209 125.256 227.91 123.162L238.082 115.563C238.082 115.563 234.911 133.932 234.971 137.044C234.971 137.044 234.312 142.788 223.363 144.702L221.229 145.001Z" fill="white"/>
<path d="M65.318 -0.154327H67.8111L67.9308 188.321C67.9308 188.321 73.0764 179.844 82.3905 180.542C82.3905 180.542 93.3998 179.705 96.0325 194.424V200.626C96.0325 200.626 97.2291 211.755 78.8005 225.278L67.4322 233.056L48.9835 220.591C48.9835 220.591 35.6257 210.599 37.3011 195.86C37.3011 195.86 38.4977 179.944 52.4987 181.26C52.4987 181.26 58.8411 180.762 65.3031 187.962L65.318 -0.154327Z" fill="white"/>
<path d="M274.675 -0.652924H276.914L277.018 167.06C277.018 167.06 281.596 159.496 289.903 160.134C289.903 160.134 299.7 159.391 302.044 172.49V178.024C302.044 178.024 303.106 187.927 286.706 199.963L276.59 206.889L260.195 195.815C260.195 195.815 248.268 186.87 249.759 173.771C249.759 173.771 250.821 159.611 263.282 160.807C263.282 160.807 268.926 160.379 274.675 166.766V-0.652924Z" fill="white"/>
<path d="M26.0225 -13.6169H27.9522L28.0469 131.319C28.0469 131.319 32.0059 124.788 39.1809 125.336C39.1809 125.336 47.6573 124.688 49.6517 136.011V140.798C49.6517 140.798 50.5692 149.354 36.3986 159.745L27.653 165.729L13.4775 156.155C13.4775 156.155 3.19612 148.462 4.48752 137.138C4.48752 137.138 5.40496 124.897 16.175 125.91C16.175 125.91 21.0514 125.546 26.0225 131.065V-13.6169Z" fill="white"/>
<path d="M103.322 -68.6834H104.948L105.027 53.2768C105.027 53.2768 108.353 47.7921 114.396 48.2408C114.396 48.2408 121.522 47.7023 123.222 57.2158V61.2396C123.222 61.2396 123.995 68.4446 112.073 77.1952L104.708 82.2361L92.7916 74.1836C92.7916 74.1836 84.1207 67.6767 85.2027 58.1532C85.2027 58.1532 85.9755 47.8569 95.0353 48.7095C95.0353 48.7095 99.1389 48.3954 103.322 53.0425V-68.6834Z" fill="white"/>
<path d="M207.552 -107.874H209.177L209.252 14.086C209.252 14.086 212.583 8.60129 218.621 9.05004C218.621 9.05004 225.746 8.51154 227.451 18.025V22.0488C227.451 22.0488 228.224 29.2538 216.298 38.0044L208.943 43.0653L197.021 35.0127C197.021 35.0127 188.345 28.5059 189.432 18.9824C189.432 18.9824 190.205 8.68605 199.265 9.53868C199.265 9.53868 203.369 9.22455 207.552 13.8716V-107.874Z" fill="white"/>
<path d="M323.868 -52.5085H325.493L325.568 69.4518C325.568 69.4518 328.899 63.9671 334.937 64.4158C334.937 64.4158 342.062 63.8723 343.767 73.3908V77.4146C343.767 77.4146 344.54 84.6195 332.614 93.3702L325.259 98.4111L313.337 90.3585C313.337 90.3585 304.651 83.8517 305.748 74.3282C305.748 74.3282 306.521 64.0319 315.581 64.8795C315.581 64.8795 319.685 64.5704 323.868 69.2174V-52.5085Z" fill="white"/>
<path d="M126.119 -24.4018H127.39L127.45 70.8329C127.45 70.8329 130.048 66.5399 134.765 66.9039C134.765 66.9039 140.324 66.4801 141.655 73.9193V77.0606C141.655 77.0606 142.259 82.6849 132.95 89.5259L127.206 93.425L117.897 87.1425C117.897 87.1425 111.125 82.0666 111.973 74.6274C111.973 74.6274 112.576 66.5848 119.652 67.2529C119.652 67.2529 122.853 67.0086 126.134 70.6385L126.119 -24.4018Z" fill="white"/>
<path d="M239.707 -59.5688H240.979L241.039 35.6659C241.039 35.6659 243.636 31.3728 248.353 31.7368C248.353 31.7368 253.918 31.313 255.244 38.7523V41.8935C255.244 41.8935 255.852 47.5179 246.538 54.3588L240.794 58.2879L231.485 52.0004C231.485 52.0004 224.714 46.9195 225.562 39.4852C225.562 39.4852 226.165 31.4426 233.24 32.1108C233.24 32.1108 236.441 31.8665 239.722 35.4963L239.707 -59.5688Z" fill="white"/>
</svg>
