<svg width="24" height="22" viewBox="0 0 24 22" fill="none" xmlns="http://www.w3.org/2000/svg">
<path d="M19.5593 14.2385C19.953 13.2822 20.1668 12.2585 20.1668 11.1335C20.1668 10.3235 20.043 9.54721 19.8293 8.82721C19.098 8.99596 18.333 9.08596 17.5343 9.08596C14.0918 9.08596 11.043 7.38721 9.18677 4.76596C8.18552 7.19596 6.27302 9.17596 3.86552 10.256C3.82052 10.5372 3.82052 10.841 3.82052 11.1335C3.82052 13.3026 4.6822 15.3829 6.21602 16.9167C7.74983 18.4505 9.83013 19.3122 11.9993 19.3122C13.1805 19.3122 14.3168 19.0535 15.3405 18.5922C15.9818 19.8185 16.2743 20.426 16.2518 20.426C14.4068 21.0447 12.978 21.3485 11.9993 21.3485C9.27677 21.3485 6.67802 20.2797 4.76552 18.356C3.59552 17.186 2.72927 15.7572 2.24552 14.2047H0.749268V9.08596H1.97552C2.92052 4.42846 7.04927 0.918457 11.9993 0.918457C14.6993 0.918457 17.298 1.98721 19.2218 3.91096C20.6505 5.32846 21.6068 7.13971 22.0005 9.08596H23.2493V14.1372V14.1597V14.2047H23.1818L19.1768 17.8835L13.2143 17.2085V15.3297H18.648L19.5593 14.2385ZM8.92802 10.8747C9.26552 10.8747 9.59177 11.0097 9.82802 11.2572C10.0643 11.4935 10.1993 11.8197 10.1993 12.1572C10.1993 12.4947 10.0643 12.821 9.82802 13.0572C9.59177 13.2935 9.26552 13.4285 8.92802 13.4285C8.21927 13.4285 7.64552 12.866 7.64552 12.1572C7.64552 11.4485 8.21927 10.8747 8.92802 10.8747ZM15.0593 10.8747C15.768 10.8747 16.3305 11.4485 16.3305 12.1572C16.3305 12.866 15.768 13.4285 15.0593 13.4285C14.3505 13.4285 13.7768 12.866 13.7768 12.1572C13.7768 11.8171 13.9119 11.4909 14.1524 11.2503C14.3929 11.0098 14.7191 10.8747 15.0593 10.8747Z" fill="#013068"/>
</svg>
