<svg width="28" height="20" viewBox="0 0 28 20" fill="none" xmlns="http://www.w3.org/2000/svg">
<path d="M16.4159 11.0691V3.81909H21.2492V6.23576H18.8325V11.0691H16.4159ZM21.2492 0.194092H9.16585C7.5635 0.194092 6.02678 0.830623 4.89375 1.96366C3.76072 3.09669 3.12419 4.63341 3.12419 6.23576V17.1108H0.70752V19.5274H24.8742C25.5151 19.5274 26.1298 19.2728 26.583 18.8196C27.0362 18.3664 27.2909 17.7517 27.2909 17.1108V6.23576C27.2909 5.44236 27.1346 4.65672 26.831 3.92371C26.5273 3.1907 26.0823 2.52468 25.5213 1.96366C24.9603 1.40263 24.2942 0.957609 23.5612 0.653986C22.8282 0.350364 22.0426 0.194092 21.2492 0.194092V0.194092ZM12.7909 17.1108H5.54085V6.23576C5.54085 5.27435 5.92277 4.35232 6.60259 3.6725C7.28241 2.99268 8.20444 2.61076 9.16585 2.61076C10.1273 2.61076 11.0493 2.99268 11.7291 3.6725C12.4089 4.35232 12.7909 5.27435 12.7909 6.23576V17.1108ZM24.8742 17.1108H15.2075V6.23576C15.2075 4.91868 14.7846 3.64993 13.9992 2.61076H21.2492C22.2106 2.61076 23.1326 2.99268 23.8124 3.6725C24.4923 4.35232 24.8742 5.27435 24.8742 6.23576V17.1108Z" fill="#013068"/>
</svg>
