<svg width="20" height="19" viewBox="0 0 20 19" fill="none" xmlns="http://www.w3.org/2000/svg">
<path d="M3.99927 16.9564H5.99927V18.9564H3.99927V16.9564ZM9.99927 0.956421L-0.000732422 5.95642V18.9564H1.99927V10.9564H17.9993V18.9564H19.9993V5.95642L9.99927 0.956421ZM5.99927 8.95642H1.99927V6.95642H5.99927V8.95642ZM11.9993 8.95642H7.99927V6.95642H11.9993V8.95642ZM17.9993 8.95642H13.9993V6.95642H17.9993V8.95642ZM3.99927 12.9564H5.99927V14.9564H3.99927V12.9564ZM7.99927 12.9564H9.99927V14.9564H7.99927V12.9564ZM7.99927 16.9564H9.99927V18.9564H7.99927V16.9564ZM11.9993 16.9564H13.9993V18.9564H11.9993V16.9564Z" fill="#013068"/>
</svg>
