<svg xmlns="http://www.w3.org/2000/svg" width="38.203" height="38.203"><path d="M10.417 14.548c.104.115.154.293.154.531s-.056.414-.166.529c-.113.114-.285.171-.517.171H8.866v-1.405h1.072c.216-.001.375.058.479.174zm27.786 5.349l-.186 2.888-.797.555v1.779h-1.425c.086.293.134.604.134.922 0 1.828-1.488 3.315-3.316 3.315s-3.316-1.487-3.316-3.315c0-.209.021-.414.061-.611-.229.068-.428.061-.428.061h-6.08c-.186-.369.246-.738.246-.738H28.5c.613-.43-.062-.735-.062-.735h-5.526c-.615.185-.738 1.166-.738 1.166H9.828V24.08h-.836c.406.551.65 1.229.65 1.967 0 1.828-1.488 3.315-3.316 3.315S3.01 27.873 3.01 26.044c0-.736.244-1.414.65-1.967h-.467C1.473 24.078 0 23.524 0 23.524v-1.965h2.38a1.332 1.332 0 01-.16-.64V10.194c0-.746.605-1.351 1.352-1.351h17.123c.746 0 1.352.604 1.352 1.351v10.724c0 .231-.059.449-.16.641h1.271V10.256h7.187l3.625 5.098c3.069.492 2.579 1.659 2.579 1.659h-.799v1.535h1.535v.982l.918.367zM4.337 18.676h.895v-2.188h1.897v-.925H5.232v-1.168h2.144v-.925H4.337v5.206zm3.83 7.363a1.844 1.844 0 00-3.686 0c0 1.017.826 1.843 1.844 1.843a1.845 1.845 0 001.842-1.843zm3.375-7.498a.28.28 0 01-.142-.181 1.971 1.971 0 01-.034-.457v-.583c0-.496-.141-.849-.418-1.06a.774.774 0 00-.113-.07c.095-.052.179-.117.255-.195.253-.257.378-.613.378-1.069 0-.474-.125-.835-.376-1.083-.253-.248-.618-.372-1.101-.372H7.97v5.205h.896V16.65h.986c.227 0 .389.063.482.188.094.124.14.331.134.621l-.005.298c-.002.16.008.329.027.506.021.177.045.314.076.411h.975l.001-.133zm3.959-.79h-2.344V16.41h2.067v-.925h-2.067v-1.09h2.262v-.925h-3.157v5.205h3.239v-.924zm3.966 0h-2.345V16.41h2.067v-.925h-2.067v-1.09h2.264v-.925h-3.159v5.205h3.24v-.924zm7.31-1.601h-2.148v.86c2.826.001 2.148-.86 2.148-.86zm5.53-.061l-2.703-4.668h-4.729l-.062 3.869 4.358-.061.492.859 2.644.001zm2.148 9.95a1.844 1.844 0 00-1.843-1.844 1.844 1.844 0 000 3.687 1.846 1.846 0 001.843-1.843z"/></svg>