<svg width="220" height="54" fill="none" xmlns="http://www.w3.org/2000/svg"><g clip-path="url(#clip0)" fill-rule="evenodd" clip-rule="evenodd"><path d="M9.19 1.102v11.333c.985-.976 2.151-1.76 3.436-2.311a10.303 10.303 0 013.958-.769 10.461 10.461 0 014.264.858c1.342.581 2.54 1.437 3.514 2.51 2.134 2.248 3.201 5.132 3.201 8.649 0 3.392-1.104 6.227-3.313 8.506-2.21 2.278-4.823 3.417-7.841 3.414a9.951 9.951 0 01-3.758-.703 11.437 11.437 0 01-3.46-2.278v2.428H3.333V1.102h5.858zm6.155 13.502a6.26 6.26 0 00-2.495.446 6.134 6.134 0 00-2.095 1.394c-1.218 1.234-1.827 2.842-1.827 4.825 0 2.025.609 3.668 1.826 4.914a6.05 6.05 0 002.088 1.421c.792.324 1.645.48 2.503.457a6.102 6.102 0 002.47-.477 5.973 5.973 0 002.05-1.428c1.227-1.277 1.84-2.9 1.837-4.866-.002-1.967-.598-3.57-1.788-4.812a5.951 5.951 0 00-2.065-1.421 6.076 6.076 0 00-2.483-.457l-.021.004zm13.373-4.685h5.948v10.975c0 2.137.151 3.617.454 4.439.265.78.774 1.458 1.456 1.94a4.275 4.275 0 002.474.682 4.44 4.44 0 002.494-.683 3.994 3.994 0 001.522-1.997c.242-.66.368-2.066.368-4.214V9.915h5.87v9.657c0 3.986-.322 6.712-.968 8.178a8.931 8.931 0 01-3.5 4.118c-1.532.954-3.482 1.432-5.85 1.435-2.565 0-4.64-.56-6.224-1.677a8.842 8.842 0 01-3.348-4.671c-.467-1.382-.7-3.898-.7-7.547V9.915l.004.004zm22.12-8.814h5.86v31.641h-5.86V1.102v.003zm7.522 0h5.857v18.221L72.88 9.92h7.32L70.178 20.815l11.284 11.931h-7.288l-9.958-10.528v10.525H58.36V1.105z" fill="#fff"/><path d="M101.018 9.902v22.827h-2.995v-3.927a12.636 12.636 0 01-4.244 3.367 12.161 12.161 0 01-7.198.933 11.99 11.99 0 01-6.413-3.323 11.724 11.724 0 01-2.64-3.92 11.495 11.495 0 01-.859-4.617 11.297 11.297 0 01.887-4.562 11.526 11.526 0 012.658-3.852 11.558 11.558 0 013.887-2.617 11.795 11.795 0 014.636-.88c1.808-.025 3.595.38 5.206 1.182a11.64 11.64 0 014.09 3.575V9.902h2.985zm-12.054 2.277a9.27 9.27 0 00-4.648 1.214 8.984 8.984 0 00-3.364 3.359 9.05 9.05 0 00-1.258 4.596 9.05 9.05 0 001.258 4.596 9.058 9.058 0 003.4 3.415 9.068 9.068 0 004.58 1.225 9.556 9.556 0 004.672-1.212 8.562 8.562 0 003.4-3.281 9.182 9.182 0 001.194-4.672 8.858 8.858 0 00-.645-3.566 9.033 9.033 0 00-2.025-3.034 8.847 8.847 0 00-2.997-1.997 9.026 9.026 0 00-3.567-.653v.01zm15.224-2.277h2.995v4.196a11.8 11.8 0 014.104-3.575 11.256 11.256 0 015.185-1.181c1.592-.021 3.171.279 4.639.88a11.593 11.593 0 013.891 2.616 11.51 11.51 0 012.661 3.851c.61 1.447.912 3 .887 4.563a11.498 11.498 0 01-.868 4.619 11.735 11.735 0 01-2.652 3.918 11.94 11.94 0 01-6.414 3.323 12.11 12.11 0 01-7.196-.953 12.938 12.938 0 01-4.237-3.38V41.07h-2.995V9.901zm12.064 2.277a9.018 9.018 0 00-3.571.651 8.838 8.838 0 00-3 2 9.022 9.022 0 00-2.022 3.029 8.82 8.82 0 00-.644 3.56 9.146 9.146 0 001.189 4.658 8.568 8.568 0 003.408 3.282 9.63 9.63 0 004.682 1.212 9.018 9.018 0 004.548-1.226 9.03 9.03 0 003.401-3.415 9.05 9.05 0 001.258-4.596 9.05 9.05 0 00-1.258-4.596 8.98 8.98 0 00-3.359-3.356 9.269 9.269 0 00-4.643-1.216l.011.013zm14.327-2.277h2.999v4.196a11.809 11.809 0 014.104-3.575 11.256 11.256 0 015.185-1.181c1.592-.021 3.171.279 4.639.88a11.597 11.597 0 013.892 2.616 11.521 11.521 0 012.66 3.851c.61 1.447.912 3 .887 4.563a11.498 11.498 0 01-.868 4.619 11.717 11.717 0 01-2.651 3.918 11.944 11.944 0 01-6.415 3.323 12.11 12.11 0 01-7.196-.953 12.948 12.948 0 01-4.237-3.38V41.07h-2.995V9.901h-.004zm12.064 2.277a9.016 9.016 0 00-3.57.651 8.829 8.829 0 00-3 2 9.01 9.01 0 00-2.023 3.029 8.836 8.836 0 00-.643 3.56 9.146 9.146 0 001.189 4.658 8.561 8.561 0 003.408 3.282 9.628 9.628 0 004.671 1.222 9.017 9.017 0 004.548-1.226 9.03 9.03 0 003.401-3.415 9.05 9.05 0 001.258-4.596 9.05 9.05 0 00-1.258-4.596 8.98 8.98 0 00-3.359-3.356 9.269 9.269 0 00-4.643-1.216l.021.003zm37.589-2.277v22.827h-2.989v-3.927a12.63 12.63 0 01-4.244 3.367 12.159 12.159 0 01-7.199.934 11.993 11.993 0 01-6.415-3.324 11.748 11.748 0 01-2.64-3.921 11.498 11.498 0 01-.858-4.616 11.274 11.274 0 01.887-4.563 11.521 11.521 0 012.66-3.85 11.567 11.567 0 013.888-2.618 11.793 11.793 0 014.636-.88c1.808-.025 3.595.38 5.206 1.182a11.636 11.636 0 014.09 3.575V9.902h2.978zm-12.058 2.277a9.27 9.27 0 00-4.644 1.216 8.984 8.984 0 00-3.361 3.357 9.048 9.048 0 00-1.257 4.596c0 1.613.433 3.198 1.257 4.596a9.038 9.038 0 003.401 3.415 9.063 9.063 0 004.58 1.225 9.53 9.53 0 004.667-1.212 8.558 8.558 0 003.401-3.281 9.14 9.14 0 001.2-4.672 8.833 8.833 0 00-.645-3.567 9.012 9.012 0 00-2.028-3.033 8.841 8.841 0 00-2.996-1.998 9.02 9.02 0 00-3.567-.652l-.008.01zm14.038-2.277h3.082v3.34a10.405 10.405 0 012.908-2.94 5.934 5.934 0 013.187-.96 5.62 5.62 0 012.673.775l-1.571 2.462a4.343 4.343 0 00-1.595-.4 4.411 4.411 0 00-2.908 1.206c-.93.802-1.644 2.049-2.134 3.756-.375 1.298-.562 3.925-.56 7.881v7.717h-3.082V9.902zm30.503 15.274a13.614 13.614 0 01-2.572 3.22 9.16 9.16 0 01-2.883 1.594 10.349 10.349 0 01-3.499.605 8.582 8.582 0 01-3.398-.627 8.404 8.404 0 01-2.851-1.91c-1.679-1.683-2.55-3.845-2.613-6.488h21.147c-.028-3.117-.891-5.713-2.59-7.79-2.386-2.945-5.582-4.419-9.59-4.421-3.884 0-6.984 1.437-9.3 4.313a11.94 11.94 0 00-2.746 7.724 12.127 12.127 0 003.236 8.256c2.158 2.434 5.15 3.652 8.978 3.654a13.277 13.277 0 004.643-.761 11.712 11.712 0 003.684-2.22 13.495 13.495 0 002.894-3.841l-2.54-1.308zm.028-6.147h-17.54c.623-2.1 1.536-3.67 2.754-4.722a8.768 8.768 0 015.948-2.158 9.608 9.608 0 013.999.86 8.357 8.357 0 013.068 2.264 9.56 9.56 0 011.75 3.756h.021zm4.748-17.927h2.995v31.64h-2.995V1.103z" fill="#CD0000"/><path d="M184.941 54c-.668-.041-6.773-4.569-7.746-5.259-2.449-1.748-2.523-3.67-.056-5.422.899-.639 7.253-5.358 7.802-5.3l32.645-.102c.64 0 1.253.25 1.706.69.452.443.707 1.041.708 1.666V51.54a2.337 2.337 0 01-.709 1.665 2.454 2.454 0 01-1.705.692L184.941 54z" fill="#fff"/><path d="M205.2 49.718a.676.676 0 01-.228.533.747.747 0 01-.545.225h-.025a.755.755 0 01-.542-.225.677.677 0 01-.231-.533v-4.545a3.637 3.637 0 01.291-1.431c.192-.454.474-.867.83-1.214a3.836 3.836 0 011.243-.81 3.914 3.914 0 011.467-.284 3.725 3.725 0 011.711.37c.531.257.99.636 1.337 1.105a3.6 3.6 0 011.334-1.106 3.704 3.704 0 011.71-.37c.503 0 1.001.098 1.465.286.465.188.887.463 1.242.81.356.347.638.76.83 1.213.192.454.291.94.29 1.431v4.545a.698.698 0 01-.22.533.748.748 0 01-.549.225h-.018a.796.796 0 01-.546-.225.761.761 0 01-.231-.533v-4.545a2.148 2.148 0 00-.146-.872 2.201 2.201 0 00-.484-.746 2.257 2.257 0 00-.745-.502 2.309 2.309 0 00-2.519.502 2.216 2.216 0 00-.484.746 2.166 2.166 0 00-.146.872v4.545a.757.757 0 01-.229.532.795.795 0 01-.544.226.77.77 0 01-.553-.225.712.712 0 01-.248-.533v-4.545c0-.585-.238-1.146-.662-1.56a2.29 2.29 0 00-1.598-.646c-.6 0-1.175.233-1.599.646a2.179 2.179 0 00-.662 1.56v4.545h.004zm-23.638-5.327c.326 0 .645.096.917.274.271.177.482.43.606.724.125.295.157.62.092.932-.064.312-.222.599-.454.824a1.663 1.663 0 01-.846.44 1.689 1.689 0 01-.954-.095 1.642 1.642 0 01-.74-.595 1.58 1.58 0 01.21-2.034 1.663 1.663 0 011.169-.47zm8.211-2.957c.476 0 .948.072 1.4.215.164.036.309.13.409.262a.67.67 0 01.133.459v.04a.764.764 0 01-.32.608.79.79 0 01-.691.113 2.95 2.95 0 00-.931-.147 3.143 3.143 0 00-1.207.199 3.082 3.082 0 00-1.031.642c-.297.28-.532.615-.693.985a2.935 2.935 0 000 2.341c.161.37.396.705.693.985.296.28.647.498 1.031.643.385.144.796.212 1.207.198.316 0 .63-.047.931-.14a.787.787 0 01.695.107.75.75 0 01.316.614.67.67 0 01-.133.458.703.703 0 01-.409.262c-.453.14-.925.21-1.4.208a4.692 4.692 0 01-3.197-1.368 4.47 4.47 0 01-1.315-3.158c0-1.18.472-2.312 1.315-3.157a4.692 4.692 0 013.197-1.37zm7.771 0a4.71 4.71 0 00-2.944 1.025 4.516 4.516 0 00-1.61 2.616 4.43 4.43 0 00.457 3.018 4.6 4.6 0 002.314 2.05 4.745 4.745 0 003.122.153 4.631 4.631 0 002.513-1.816 4.44 4.44 0 00.761-2.959 4.483 4.483 0 00-1.334-2.759 4.458 4.458 0 00-1.498-.997 4.544 4.544 0 00-1.781-.331zm0 1.55c.404-.007.805.067 1.177.218.373.15.71.376.989.66a2.936 2.936 0 010 4.234c-.279.285-.616.51-.988.661a2.994 2.994 0 01-1.178.22 3.14 3.14 0 01-1.207-.198 3.095 3.095 0 01-1.032-.643 2.998 2.998 0 01-.692-.985 2.935 2.935 0 010-2.341 3 3 0 01.692-.985c.297-.28.648-.498 1.032-.642a3.14 3.14 0 011.207-.199z" fill="#013068"/></g><defs><clipPath id="clip0"><path fill="#fff" d="M0 0h220v54H0z"/></clipPath></defs></svg>