<svg width="36" height="30" fill="none" xmlns="http://www.w3.org/2000/svg"><path d="M24.783 23.257c1.956 0 3.523 1.291 3.523 2.885 0 1.594-1.567 2.885-3.523 2.885-1.956 0-3.54-1.291-3.54-2.885 0-1.594 1.584-2.885 3.54-2.885zm-17.703 0c1.957 0 3.524 1.291 3.524 2.885 0 1.594-1.567 2.885-3.523 2.885-1.956 0-3.54-1.291-3.54-2.885 0-1.594 1.584-2.885 3.54-2.885zm15.756-7.212H9.648c-1.328 0-2.488-.598-3.098-1.485L.22 5.198A1.2 1.2 0 010 4.506c0-.8.796-1.442 1.77-1.442h26.173L29.625.179h5.78v2.885h-3.541L25.5 14.004l2.39 3.534c.274.419.433.887.433 1.392 0 1.594-1.584 2.885-3.54 2.885H3.54V18.93h20.49c.248 0 .443-.159.443-.36a.294.294 0 00-.053-.174l-1.584-2.35z"/></svg>