<svg viewBox="0 0 66 65" fill="none" xmlns="http://www.w3.org/2000/svg"><g clip-path="url(#clip0)"><circle cx="33.164" cy="33.867" r="30.696" fill="#fff"/><path d="M32.54.801C14.623.801.098 15.326.098 33.243S14.623 65.685 32.54 65.685 64.982 51.16 64.982 33.243 50.457.801 32.54.801zm0 60.829c-15.677 0-28.386-12.71-28.386-28.387S16.863 4.857 32.54 4.857c15.678 0 28.387 12.709 28.387 28.386S48.217 61.629 32.54 61.629z" fill="#707070"/><path d="M28.323 27.93a2.028 2.028 0 00-.446-2.21l-8.11-8.11-2.86 2.88 4.664 4.643h-5.252v4.055h10.138a2.027 2.027 0 001.866-1.257zm19.85-7.44l-2.88-2.88-8.11 8.11a2.028 2.028 0 001.44 3.468h10.138v-4.055h-5.252l4.664-4.644zM32.54 33.243c-8.958 0-16.22 7.262-16.22 16.22h4.055c0-6.718 5.446-12.165 12.165-12.165 6.719 0 12.166 5.447 12.166 12.166h4.055c0-8.959-7.262-16.221-16.22-16.221z" fill="#707070"/></g><defs><clipPath id="clip0"><path fill="#fff" transform="translate(.098 .801)" d="M0 0h64.883v64.883H0z"/></clipPath></defs></svg>