<svg viewBox="0 0 36 37" xmlns="http://www.w3.org/2000/svg"><path d="M27.504 7.8l5.079-5.076L30.03.171 24.892 5.31a11.87 11.87 0 00-1.305-.82 10.432 10.432 0 00-9.84 0c-.451.238-.88.518-1.303.818L7.306.17 4.753 2.724 9.83 7.801a15.297 15.297 0 00-2.437 4.48H.614v3.61h4.164a20.83 20.83 0 00-.193 2.708c0 .915.076 1.829.193 2.728H.613v3.61h4.97c.024.071.038.145.062.214.34 1.002.76 1.973 1.254 2.888.08.146.172.28.255.423l-4.207 4.206L5.5 35.221l3.81-3.811a13.497 13.497 0 003.733 2.923c.865.456 1.773.81 2.7 1.047a11.77 11.77 0 005.845.002 12.299 12.299 0 002.7-1.047c.84-.445 1.65-.993 2.407-1.633.466-.393.903-.834 1.325-1.292l3.812 3.811 2.552-2.553-4.206-4.206c.085-.145.177-.28.256-.426.493-.912.916-1.883 1.253-2.887.024-.07.038-.143.062-.213h4.972v-3.611h-4.167c.117-.9.193-1.813.193-2.728 0-.908-.076-1.814-.191-2.708h4.165V12.28H29.94a15.334 15.334 0 00-2.436-4.48zm-14.83 2.22c.804-1.008 1.734-1.793 2.76-2.336a6.812 6.812 0 016.464 0 8.836 8.836 0 012.763 2.337c.54.674.975 1.445 1.36 2.26H11.312c.387-.815.82-1.588 1.362-2.261zm16.464 8.579c0 .942-.076 1.885-.228 2.804a16.251 16.251 0 01-.64 2.592c-.27.802-.608 1.58-1.01 2.325a13.7 13.7 0 01-1.323 2.004 11.838 11.838 0 01-1.569 1.622c-.56.47-1.153.873-1.767 1.198a8.711 8.711 0 01-1.909.74c-.072.019-.148.026-.22.042v-10.62h-3.61v10.618c-.073-.016-.149-.023-.22-.041a8.746 8.746 0 01-1.91-.74 9.986 9.986 0 01-1.765-1.2 11.667 11.667 0 01-1.572-1.622 13.36 13.36 0 01-1.32-2 15.056 15.056 0 01-1.011-2.328c-.285-.846-.5-1.714-.643-2.596a17.35 17.35 0 01-.01-5.506h20.51c.143.886.217 1.796.217 2.708z"/></svg>