<svg viewBox="0 0 38 42" fill="0" xmlns="http://www.w3.org/2000/svg"><path d="M34.951 24.219a14.518 14.518 0 001.097-5.606c0-1.462-.223-2.863-.61-4.163-1.32.304-2.7.467-4.143.467-6.215 0-11.719-3.067-15.07-7.8a18.706 18.706 0 01-9.607 9.912c-.081.508-.081 1.056-.081 1.584A14.766 14.766 0 0021.303 33.38a14.68 14.68 0 006.032-1.3c1.157 2.214 1.686 3.31 1.645 3.31-3.331 1.118-5.91 1.666-7.677 1.666-4.916 0-9.607-1.93-13.06-5.402a18.343 18.343 0 01-4.55-7.495h-2.7v-9.241h2.213C4.912 6.508 12.366.17 21.303.17c4.874 0 9.566 1.93 13.039 5.403a18.261 18.261 0 015.017 9.343h2.254v9.242h-.122l-7.23 6.642-10.765-1.219v-3.392h9.81l1.645-1.97zm-19.193-6.073c.61 0 1.198.244 1.625.69a2.307 2.307 0 010 3.25 2.306 2.306 0 01-1.625.67 2.297 2.297 0 01-2.316-2.294 2.314 2.314 0 012.316-2.316zm11.07 0a2.297 2.297 0 012.294 2.316 2.28 2.28 0 01-2.295 2.295 2.297 2.297 0 01-2.315-2.295 2.315 2.315 0 012.315-2.316z"/></svg>