<svg viewBox="0 0 68 68" fill="none" xmlns="http://www.w3.org/2000/svg"><path d="M19.008 1.365C14.64.269 10.062.735 6.476 2.718 2.822 4.735.26 8.312.134 13.098c-.194 7.477 1.558 17.512 8.513 29.29 6.867 11.632 14.448 18.604 20.74 22.746 3.973 2.619 8.362 2.69 12.112.984 3.697-1.681 6.695-5.039 8.253-9.201a7.544 7.544 0 00-.504-6.375l-4.006-7.067a10.468 10.468 0 00-5.586-4.684 10.62 10.62 0 00-7.325.065l-2.797 1.058c-1.357.51-2.604.274-3.31-.415-2.373-2.303-4.07-5.428-4.838-8.798-.244-1.062.252-2.315 1.436-3.2l2.524-1.883a10.361 10.361 0 003.962-6.202 10.267 10.267 0 00-1.177-7.24L24.049 5.14a8.037 8.037 0 00-2.132-2.394 8.143 8.143 0 00-2.909-1.382zM4.334 13.205c.084-3.212 1.73-5.507 4.191-6.868 2.529-1.399 5.981-1.826 9.45-.955a3.902 3.902 0 012.432 1.822l4.078 7.034a6.161 6.161 0 01.707 4.343 6.217 6.217 0 01-2.374 3.72l-2.524 1.885c-2.184 1.627-3.696 4.416-3.008 7.424.933 4.075 2.995 7.94 5.994 10.848 2.192 2.125 5.317 2.25 7.753 1.328l2.797-1.058a6.37 6.37 0 014.397-.04A6.28 6.28 0 0141.58 45.5l4.003 7.068a3.44 3.44 0 01.23 2.905c-1.217 3.258-3.506 5.702-6.068 6.868-2.508 1.141-5.343 1.108-8.026-.664-5.759-3.793-12.894-10.3-19.446-21.385-6.557-11.118-8.11-20.389-7.934-27.083l-.004-.004zM45.082 1.141a2.122 2.122 0 00-1.596-.182 2.096 2.096 0 00-1.26.987 2.053 2.053 0 00-.184 1.578c.153.529.512.977 1 1.244l1.612.888A35.538 35.538 0 0157.145 17.11a35.006 35.006 0 015.695 15.87l.134 1.307a2.056 2.056 0 00.733 1.461 2.109 2.109 0 001.574.488 2.12 2.12 0 001.445-.788 2.065 2.065 0 00.423-1.576l-.13-1.303a39.124 39.124 0 00-6.365-17.74A39.717 39.717 0 0046.691 2.024l-1.609-.884zM40.16 12.263a2.098 2.098 0 011.292-.944 2.121 2.121 0 011.59.234l.52.307a27.166 27.166 0 018.522 7.95 26.794 26.794 0 014.364 10.746l.185 1.108a2.049 2.049 0 01-.338 1.576 2.089 2.089 0 01-1.378.862 2.125 2.125 0 01-1.587-.371 2.085 2.085 0 01-.839-1.382l-.189-1.108a22.67 22.67 0 00-3.69-9.093 22.985 22.985 0 00-7.209-6.727l-.52-.311a2.091 2.091 0 01-.958-1.276 2.051 2.051 0 01.235-1.571z"/></svg>