<svg width="27" height="30" fill="none" xmlns="http://www.w3.org/2000/svg"><path d="M24.819 18.077V7.739L12.546.654.273 7.739v14.172l12.273 7.085 3.265-1.885a6.364 6.364 0 004.561 1.923 6.39 6.39 0 006.383-6.383 6.364 6.364 0 00-1.936-4.574zm-12.273-15.5l9.775 5.643-4.055 2.341-9.775-5.644 4.055-2.34zm-.832 24.016l-9.775-5.644V9.662l9.775 5.644v11.287zM2.77 8.22l4.055-2.341 9.775 5.643-4.055 2.342L2.771 8.22zm10.61 18.373V15.306l9.775-5.644v7.245a6.344 6.344 0 00-2.782-.639 6.39 6.39 0 00-6.383 6.383c0 1.132.297 2.196.816 3.119l-1.426.823zm6.993.776a4.723 4.723 0 01-4.718-4.718 4.723 4.723 0 014.718-4.718 4.723 4.723 0 014.718 4.718 4.723 4.723 0 01-4.718 4.718z" fill="#C5C5C5"/><path d="M22.344 20.232l-2.726 2.742-1.221-1.21-1.172 1.184 2.402 2.378 3.898-3.92-1.18-1.174z" fill="#C5C5C5"/></svg>