<svg width="39" height="37" fill="none" xmlns="http://www.w3.org/2000/svg"><g clip-path="url(#clip0)"><path d="M32.29 21.878c-3.225-1.315-7.412-2.084-11.89-2.193v-5.027c2.449-.986 4.488-.378 7.023.378 1.859.554 3.902 1.164 6.34 1.164.825 0 1.695-.07 2.618-.236.387-.069.708-.334.84-.694.134-.361.06-.764-.193-1.058l-3.92-4.545 3.93-4.697c.293-.35.33-.84.095-1.23a1.117 1.117 0 00-1.153-.51c-3.118.559-5.554-.167-7.909-.87-2.388-.712-4.845-1.443-7.671-.603V1.52c0-.595-.495-1.077-1.107-1.077-.61 0-1.106.482-1.106 1.077v18.164c-4.478.109-8.665.878-11.89 2.193C2.5 23.426.41 25.6.41 28c0 2.4 2.09 4.573 5.886 6.121 3.49 1.424 8.105 2.208 12.996 2.208 4.892 0 9.508-.784 12.997-2.208 3.795-1.548 5.886-3.722 5.886-6.12 0-2.4-2.09-4.574-5.886-6.122zM20.4 4.043c2.449-.986 4.488-.379 7.023.377 1.836.548 3.851 1.149 6.247 1.164l-2.855 3.413c-.335.4-.33.977.01 1.373l3.167 3.672c-2.21.04-4.09-.52-5.92-1.066-2.389-.712-4.846-1.444-7.672-.604v-8.33zm-1.107 24.6c.611 0 1.107-.482 1.107-1.077v-1.29c1.807.065 3.505.288 4.866.646 1.567.412 2.191.872 2.35 1.067-.159.195-.783.654-2.35 1.066-1.636.43-3.758.667-5.973.667-2.214 0-4.336-.237-5.973-.667-1.566-.412-2.19-.871-2.348-1.066.158-.195.782-.655 2.348-1.067 1.362-.358 3.06-.581 4.867-.646v1.29c0 .595.495 1.077 1.106 1.077zm0 5.53C9.47 34.173 2.624 30.92 2.624 28c0-2.809 6.336-5.926 15.563-6.16v2.28c-2.217.075-4.282.37-5.903.852-.985.293-1.776.646-2.35 1.05-.994.698-1.203 1.456-1.203 1.968s.209 1.269 1.202 1.967c.575.404 1.366.758 2.351 1.05 1.888.561 4.377.87 7.01.87 2.632 0 5.12-.308 7.009-.87.985-.292 1.775-.646 2.35-1.05.994-.698 1.203-1.455 1.203-1.967s-.21-1.27-1.203-1.968c-.575-.404-1.365-.757-2.35-1.05-1.621-.482-3.686-.777-5.903-.851v-2.28c9.227.233 15.563 3.35 15.563 6.16 0 2.92-6.846 6.173-16.67 6.173z" fill="#000"/></g><defs><clipPath id="clip0"><path fill="#fff" transform="translate(.411)" d="M0 0h37.764v36.77H0z"/></clipPath></defs></svg>