<svg viewBox="0 0 45 47" xmlns="http://www.w3.org/2000/svg"><path d="M20.56 28.367a5.287 5.287 0 015.286 5.286v3.53l-.02.253c-.727 4.998-5.215 7.4-12.746 7.4-7.502 0-12.063-2.374-13.047-7.313L0 37.178v-3.525a5.287 5.287 0 015.287-5.286h15.272zm0 3.524H5.286a1.762 1.762 0 00-1.763 1.762v3.337c.658 2.82 3.642 4.32 9.556 4.32 5.912 0 8.764-1.482 9.241-4.266v-3.39a1.762 1.762 0 00-1.762-1.763zM12.922 9.57a8.224 8.224 0 110 16.449 8.224 8.224 0 010-16.45zM41.705.17a5.287 5.287 0 015.287 5.287v8.224a5.286 5.286 0 01-5.286 5.286h-3.42l-5.088 5.03a2.936 2.936 0 01-5.003-2.086v-2.977a5.287 5.287 0 01-4.699-5.253V5.458A5.286 5.286 0 0128.783.171h12.922zM12.924 13.094a4.699 4.699 0 100 9.398 4.699 4.699 0 000-9.398zm28.782-9.398H28.784a1.762 1.762 0 00-1.763 1.762v8.224c0 .972.79 1.762 1.763 1.762h2.934v5.06l5.125-5.06h4.866a1.762 1.762 0 001.762-1.762V5.458a1.762 1.762 0 00-1.764-1.762z"/></svg>