<svg viewBox="0 0 66 66" fill="none" xmlns="http://www.w3.org/2000/svg"><g clip-path="url(#clip0)"><circle cx="32.989" cy="33.243" r="29.559" fill="#fff"/><path d="M55.929 10.303C49.8 4.176 41.654.801 32.989.801c-8.665 0-16.812 3.375-22.94 9.502C3.922 16.431.547 24.577.547 33.243c0 8.665 3.375 16.812 9.502 22.94 6.128 6.127 14.275 9.502 22.94 9.502 8.666 0 16.812-3.375 22.94-9.502 6.127-6.128 9.502-14.275 9.502-22.94 0-8.666-3.375-16.812-9.502-22.94zM53.24 53.495c-5.409 5.409-12.601 8.388-20.251 8.388s-14.842-2.98-20.251-8.389c-5.41-5.409-8.389-12.6-8.389-20.251 0-7.65 2.98-14.842 8.389-20.252 5.409-5.409 12.6-8.388 20.251-8.388 7.65 0 14.842 2.98 20.252 8.389 5.409 5.409 8.388 12.601 8.388 20.251s-2.98 14.842-8.389 20.252z" fill="#707070"/><path d="M37.47 28.07c1.05 0 1.901-.852 1.901-1.901 0-2.642 1.787-4.791 3.983-4.791s3.982 2.149 3.982 4.79a1.901 1.901 0 003.802 0c0-4.738-3.492-8.592-7.784-8.592-4.293 0-7.785 3.854-7.785 8.593a1.9 1.9 0 001.901 1.9zm-20.727 0c1.05 0 1.901-.852 1.901-1.901 0-2.642 1.787-4.791 3.982-4.791 2.196 0 3.983 2.149 3.983 4.79a1.901 1.901 0 003.802 0c0-4.738-3.492-8.592-7.785-8.592-4.292 0-7.784 3.854-7.784 8.593a1.9 1.9 0 001.901 1.9zm35.401 8.804H13.836a1.9 1.9 0 00-1.901 1.9c0 4.955 2.228 9.595 6.273 13.067 3.962 3.4 9.212 5.273 14.782 5.273s10.82-1.873 14.782-5.273c4.046-3.472 6.273-8.112 6.273-13.066a1.9 1.9 0 00-1.9-1.901zm-2.047 3.802a12.793 12.793 0 01-1.57 4.417H17.453a12.793 12.793 0 01-1.57-4.417h34.214zm-29.48 8.219h24.746c-3.137 2.722-7.524 4.417-12.373 4.417-4.849 0-9.236-1.695-12.373-4.417z" fill="#707070"/></g><defs><clipPath id="clip0"><path fill="#fff" transform="translate(.547 .801)" d="M0 0h64.883v64.883H0z"/></clipPath></defs></svg>