<svg width="73" height="73" fill="none" xmlns="http://www.w3.org/2000/svg"><path d="M72.87 49.618c0-10.496-7.073-19.666-17.046-22.43C55.197 12.578 43.117.885 28.356.885 13.193.885.858 13.22.858 28.381a27.41 27.41 0 003.813 13.976L.96 55.776l13.42-3.712a27.394 27.394 0 0012.782 3.785c2.763 9.973 11.934 17.046 22.43 17.046 4.19 0 8.265-1.116 11.845-3.236l11.33 3.135-3.133-11.332a23.193 23.193 0 003.236-11.844zm-57.825-2.116l-8.033 2.222 2.222-8.033-.506-.792a23.198 23.198 0 01-3.65-12.518c0-12.835 10.443-23.277 23.277-23.277 12.835 0 23.277 10.442 23.277 23.277S41.19 51.658 28.356 51.658a23.2 23.2 0 01-12.519-3.65l-.792-.506zm51.672 19.24l-5.961-1.649-.796.518a18.984 18.984 0 01-10.367 3.065c-8.25 0-15.5-5.334-18.068-12.983 12.633-1.456 22.686-11.51 24.143-24.142 7.648 2.569 12.982 9.818 12.982 18.067 0 3.696-1.06 7.282-3.064 10.367l-.518.797 1.649 5.96z" fill="#002E66"/><path d="M26.246 39h4.22v4.219h-4.22v-4.22zm6.329-17.018a4.176 4.176 0 01-1.374 3.114l-4.955 4.536v5.148h4.22v-3.29l3.584-3.281a8.462 8.462 0 002.744-6.227c0-4.654-3.785-8.439-8.439-8.439-4.653 0-8.438 3.785-8.438 8.439h4.22a4.224 4.224 0 014.218-4.22 4.224 4.224 0 014.22 4.22z" fill="#002E66"/></svg>