<svg width="32" height="31" fill="none" xmlns="http://www.w3.org/2000/svg"><path d="M23.862 14.708H19.77a3.868 3.868 0 00-3.629-2.504 3.868 3.868 0 00-3.629 2.504H8.42c-.425 0-2.574-.125-2.574-2.504v-1.252c0-2.291 1.982-2.504 2.574-2.504h13.1a3.868 3.868 0 003.63 2.504 3.915 3.915 0 002.729-1.1 3.705 3.705 0 001.13-2.656c0-.997-.406-1.952-1.13-2.656a3.916 3.916 0 00-2.73-1.1 3.868 3.868 0 00-3.629 2.504H8.42c-2.072 0-5.148 1.327-5.148 5.008v1.252c0 3.681 3.076 5.008 5.148 5.008h4.092a3.868 3.868 0 003.63 2.505 3.868 3.868 0 003.628-2.505h4.092c.425 0 2.574.125 2.574 2.505v1.252c0 2.29-1.982 2.504-2.574 2.504h-13.1a3.868 3.868 0 00-3.629-2.504 3.916 3.916 0 00-2.73 1.1 3.706 3.706 0 00-1.13 2.656c0 .996.406 1.951 1.13 2.656a3.916 3.916 0 002.73 1.1 3.868 3.868 0 003.629-2.504h13.1c2.072 0 5.148-1.34 5.148-5.008v-1.253c0-3.668-3.076-5.008-5.148-5.008zm1.287-8.764c.341 0 .669.132.91.366.241.235.377.554.377.886 0 .332-.136.65-.377.885a1.305 1.305 0 01-.91.367c-.341 0-.669-.132-.91-.367a1.235 1.235 0 01-.377-.885c0-.332.136-.65.377-.886.241-.234.569-.366.91-.366zM7.133 25.977c-.341 0-.669-.132-.91-.367a1.235 1.235 0 01-.377-.885c0-.332.136-.65.377-.886.241-.234.569-.366.91-.366.341 0 .669.132.91.366.241.235.377.554.377.886 0 .332-.136.65-.377.885a1.305 1.305 0 01-.91.367z" fill="#15347D"/></svg>