<svg viewBox="0 0 67 66" fill="none" xmlns="http://www.w3.org/2000/svg"><g clip-path="url(#clip0)"><circle cx="32.849" cy="33.23" r="29.559" fill="#fff"/><g clip-path="url(#clip1)"><path d="M33.166.801C15.086.801.431 15.457.431 33.537c0 18.079 14.656 32.735 32.735 32.735 18.08 0 32.736-14.656 32.736-32.735C65.902 15.457 51.245.8 33.166.8zm0 61.38c-15.82 0-28.643-12.825-28.643-28.644 0-15.82 12.824-28.644 28.643-28.644 15.82 0 28.644 12.824 28.644 28.644 0 15.82-12.825 28.643-28.644 28.643z" fill="#707070"/><path d="M45.356 19.126l1.054 1.084 1.054-1.084c2.139-2.198 6.083-1.45 7.51 1.336.665 1.298.827 3.192-.414 5.642-1.19 2.347-3.666 5.173-8.15 8.263-4.483-3.09-6.96-5.915-8.15-8.263-1.24-2.449-1.078-4.343-.413-5.642 1.426-2.786 5.37-3.534 7.51-1.336zm-26.488 0l1.054 1.084 1.054-1.084c2.139-2.198 6.083-1.45 7.51 1.336.664 1.298.827 3.192-.415 5.642-1.19 2.347-3.666 5.173-8.149 8.263-4.484-3.09-6.96-5.915-8.15-8.263-1.24-2.449-1.078-4.343-.414-5.642 1.427-2.786 5.372-3.534 7.51-1.336z" stroke="#707070" stroke-width="2.941"/></g><path d="M33.166 55.387c9.413 0 17.044-6.643 17.044-14.838h-4.26c0 6.146-5.724 11.129-12.784 11.129-7.06 0-12.783-4.983-12.783-11.129h-4.261c0 8.195 7.63 14.838 17.044 14.838z" fill="#707070"/></g><defs><clipPath id="clip0"><path fill="#fff" transform="translate(.43 .801)" d="M0 0h65.471v65.471H0z"/></clipPath><clipPath id="clip1"><path fill="#fff" transform="translate(.43 .801)" d="M0 0h65.471v65.471H0z"/></clipPath></defs></svg>