<svg viewBox="0 0 66 66" fill="none" xmlns="http://www.w3.org/2000/svg"><g clip-path="url(#clip0)"><circle cx="33.106" cy="33.243" r="29.559" fill="#fff"/><path d="M33.105.801C15.19.801.664 15.326.664 33.243s14.524 32.442 32.441 32.442c17.918 0 32.442-14.525 32.442-32.442S51.023.801 33.106.801zm0 60.829C17.428 61.63 4.72 48.92 4.72 33.242S17.429 4.857 33.105 4.857c15.678 0 28.387 12.709 28.387 28.386S48.783 61.629 33.106 61.629z" fill="#707070"/><path d="M22.968 23.105a4.055 4.055 0 014.055 4.055h4.055a8.11 8.11 0 00-16.22 0h4.054a4.055 4.055 0 014.056-4.055zm20.276-4.055a8.11 8.11 0 00-8.11 8.11h4.054a4.055 4.055 0 018.11 0h4.056a8.11 8.11 0 00-8.11-8.11zm6.082 20.276H16.885v4.055h32.441v-4.055z" fill="#707070"/></g><defs><clipPath id="clip0"><path fill="#fff" transform="translate(.664 .801)" d="M0 0h64.883v64.883H0z"/></clipPath></defs></svg>