<svg width="31" height="37" fill="none" xmlns="http://www.w3.org/2000/svg"><path d="M21.466 24.108c3.701-5.974 3.236-5.23 3.343-5.385a11.67 11.67 0 002.06-6.654c0-6.36-5.018-11.6-11.21-11.6C9.488.47 4.45 5.7 4.45 12.07c0 2.397.728 4.758 2.12 6.74l3.283 5.299c-3.51.555-9.478 2.208-9.478 5.85 0 1.327.842 3.218 4.855 4.692 2.801 1.03 6.506 1.596 10.43 1.596 7.339 0 15.286-2.13 15.286-6.289 0-3.642-5.961-5.293-9.479-5.85zM8.271 17.655a9.588 9.588 0 01-1.783-5.586c0-5.242 4.104-9.503 9.171-9.503 5.057 0 9.171 4.263 9.171 9.503a9.544 9.544 0 01-1.674 5.427c-.098.133.414-.685-7.497 12.083L8.271 17.655zM15.66 34.15c-8.016 0-13.247-2.424-13.247-4.193 0-1.189 2.688-3.144 8.644-3.906l3.744 6.042c.187.302.51.484.86.484.347 0 .671-.182.858-.484l3.744-6.042c5.956.762 8.645 2.717 8.645 3.906 0 1.754-5.185 4.193-13.248 4.193z" fill="#000"/><path d="M15.66 6.828c-2.81 0-5.096 2.351-5.096 5.24 0 2.89 2.286 5.242 5.095 5.242 2.81 0 5.096-2.351 5.096-5.241 0-2.89-2.286-5.24-5.096-5.24zm0 8.385c-1.686 0-3.058-1.41-3.058-3.144 0-1.734 1.372-3.145 3.057-3.145 1.686 0 3.057 1.411 3.057 3.145s-1.37 3.144-3.057 3.144z" fill="#000"/></svg>