<svg width="77" height="70" fill="none" xmlns="http://www.w3.org/2000/svg"><path d="M12.296 58.73c-.289 0-.566-.114-.771-.317a1.076 1.076 0 01-.32-.765V8.551a7.497 7.497 0 012.226-5.318 7.635 7.635 0 015.366-2.206h49.605c.29 0 .567.114.772.317a1.076 1.076 0 010 1.53 1.096 1.096 0 01-.772.316H18.797a5.441 5.441 0 00-3.823 1.572 5.343 5.343 0 00-1.586 3.789v49.097c0 .287-.115.562-.32.765a1.096 1.096 0 01-.771.317z" fill="#09366D"/><path d="M75.379 15.902H61.427c-.29 0-.567-.114-.771-.317a1.076 1.076 0 01-.32-.764V9.022a7.932 7.932 0 01.587-3.088c.4-.98.992-1.873 1.742-2.625a8.072 8.072 0 012.63-1.757 8.131 8.131 0 016.217 0 8.072 8.072 0 012.629 1.757 7.988 7.988 0 011.742 2.625c.4.98.6 2.03.587 3.088v5.799c0 .287-.115.562-.32.764a1.096 1.096 0 01-.771.317zm-12.86-2.162h11.769V9.021a5.786 5.786 0 00-.425-2.256 5.828 5.828 0 00-1.27-1.92 5.888 5.888 0 00-1.92-1.284 5.931 5.931 0 00-6.46 1.285 5.828 5.828 0 00-1.27 1.919 5.787 5.787 0 00-.425 2.256v4.717z" fill="#09366D"/><path d="M52.17 69.41H10.654a10.619 10.619 0 01-7.462-3.068 10.428 10.428 0 01-3.096-7.395V57.65c0-.287.115-.562.32-.765.204-.203.482-.317.771-.317h41.727c.29 0 .567.114.771.317.205.203.32.478.32.765v1.507c0 2.146.86 4.205 2.392 5.722a8.204 8.204 0 005.774 2.37 8.204 8.204 0 005.774-2.37 8.055 8.055 0 002.392-5.722v-44.33c0-.287.115-.563.32-.765a1.096 1.096 0 011.543 0c.204.203.32.478.32.764v44.33a10.225 10.225 0 01-3.037 7.246 10.413 10.413 0 01-7.311 3.008zM2.278 58.73v.216c.003 2.2.886 4.31 2.456 5.867a8.424 8.424 0 005.92 2.434h35.168a10.265 10.265 0 01-2.946-3.587 10.17 10.17 0 01-1.053-4.505v-.426H2.277z" fill="#09366D"/><path d="M36.926 33.057a1.098 1.098 0 01-.649-.216c-4.495-3.296-8.657-7.353-8.657-14.678v-3.28a1.074 1.074 0 01.328-.777 1.056 1.056 0 01.794-.304 8.677 8.677 0 004.066-.697 8.599 8.599 0 003.272-2.492 1.055 1.055 0 01.884-.392 1.099 1.099 0 01.85.459c1.38 1.946 3.724 2.94 7.376 3.123.28.014.543.135.736.336.192.201.3.468.3.745v3.285a15.093 15.093 0 01-2.33 8.361 24.053 24.053 0 01-6.328 6.316c-.186.136-.41.21-.642.21zm-7.122-17.103v2.213c0 5.005 2.01 8.55 7.122 12.454a20.873 20.873 0 005.128-5.246 13.015 13.015 0 001.992-7.208v-2.28a11.159 11.159 0 01-7.16-2.941 10.618 10.618 0 01-7.082 3.008z" fill="#09366D"/><path d="M35.397 24.579c-.29 0-.567-.114-.772-.317l-1.656-1.641a1.076 1.076 0 01.013-1.516 1.096 1.096 0 011.53-.013l.885.877 3.942-3.907a1.096 1.096 0 011.53.014 1.077 1.077 0 01.012 1.515l-4.713 4.671a1.096 1.096 0 01-.771.317zm17.895 16.047H20.56c-.29 0-.567-.114-.771-.317a1.076 1.076 0 010-1.53c.204-.202.482-.316.771-.316h32.732c.29 0 .567.114.772.317a1.077 1.077 0 010 1.529 1.096 1.096 0 01-.772.317zm0 7.568H20.56c-.29 0-.567-.114-.771-.317a1.076 1.076 0 010-1.529c.204-.203.482-.316.771-.316h32.732c.29 0 .567.114.772.316a1.076 1.076 0 010 1.53 1.096 1.096 0 01-.772.316z" fill="#09366D"/></svg>