<svg width="35" height="34" fill="none" xmlns="http://www.w3.org/2000/svg"><path d="M4.53 30.872l2.14-2.087 2.138 2.087 2.14-2.087 2.138 2.087 2.14-2.087 2.138 2.087 2.14-2.087 2.138 2.087 2.139-2.087 2.139 2.087 2.139-2.087 2.139 2.087V3.048l-2.14 2.087-2.138-2.087-2.139 2.087-2.139-2.087-2.139 2.087-2.139-2.087-2.139 2.087-2.139-2.087-2.139 2.087-2.139-2.087L6.67 5.135 4.53 3.048v27.824zm21.39-18.085H8.808v-2.783H25.92v2.783zm0 5.564H8.808V15.57H25.92v2.782zm0 5.565H8.808v-2.782H25.92v2.782z" fill="#15347D"/></svg>