<svg viewBox="0 0 65 65" fill="none" xmlns="http://www.w3.org/2000/svg"><g clip-path="url(#clip0)"><circle cx="32.823" cy="32.642" r="29.559" fill="#fff"/><path d="M32.823.801C15.238.801.982 15.057.982 32.642s14.256 31.841 31.84 31.841c17.586 0 31.842-14.256 31.842-31.84C64.664 15.056 50.408.8 32.823.8zm0 59.702c-15.387 0-27.861-12.474-27.861-27.86 0-15.388 12.474-27.862 27.86-27.862 15.388 0 27.862 12.474 27.862 27.861S48.21 60.503 32.823 60.503z" fill="#707070"/><path d="M42.773 24.682a3.98 3.98 0 01-3.98-3.98h-3.98a7.96 7.96 0 0015.92 0h-3.98a3.98 3.98 0 01-3.98 3.98zm-19.9 3.98a7.96 7.96 0 007.96-7.96h-3.98a3.98 3.98 0 01-7.96 0h-3.98a7.96 7.96 0 007.96 7.96zm9.95 3.98c-8.793 0-15.92 7.128-15.92 15.92h3.98c0-6.594 5.346-11.94 11.94-11.94 6.594 0 11.94 5.346 11.94 11.94h3.98c0-8.792-7.128-15.92-15.92-15.92z" fill="#707070"/></g><defs><clipPath id="clip0"><path fill="#fff" transform="translate(.982 .801)" d="M0 0h63.682v63.682H0z"/></clipPath></defs></svg>