<svg viewBox="0 0 23 22" xmlns="http://www.w3.org/2000/svg"><path d="M0 .931h2.353v2.353H0V.931zm4.707 0H7.06v2.353H4.707V.931zm4.706 0h2.353v2.353H9.413V.931zm4.707 0h2.353v2.353H14.12V.931zm4.706 0h2.353v2.353h-2.353V.931zm0 4.707h2.353V7.99h-2.353V5.638zM0 19.758h2.353v2.352H0v-2.353zm0-4.707h2.353v2.353H0V15.05zm0-4.707h2.353v2.353H0v-2.353zm0-4.706h2.353V7.99H0V5.638zm9.021 4.706l1.22-1.83a1.177 1.177 0 01.978-.523h3.448a1.177 1.177 0 01.979.523l1.219 1.83h3.138a1.176 1.176 0 011.176 1.177v9.413a1.177 1.177 0 01-1.176 1.176H5.883a1.177 1.177 0 01-1.176-1.176V11.52a1.177 1.177 0 011.176-1.177h3.138zM7.06 19.757h11.766v-7.06h-3.22l-1.569-2.353H11.85l-1.569 2.353H7.06v7.06zm5.883-1.177a2.353 2.353 0 110-4.706 2.353 2.353 0 010 4.707z"/></svg>