<svg viewBox="0 0 35 36" height="36" xmlns="http://www.w3.org/2000/svg"><path d="M29.163 3.752H6.496c-.751 0-1.472.307-2.003.854a2.96 2.96 0 00-.83 2.063v26.25l5.667-5.834h19.833c.752 0 1.472-.307 2.004-.854a2.96 2.96 0 00.83-2.062v-17.5a2.96 2.96 0 00-.83-2.063 2.793 2.793 0 00-2.004-.854zm-17 17.5H9.33v-2.917h2.833v2.917zm0-4.375H9.33V13.96h2.833v2.917zm0-4.375H9.33V9.585h2.833v2.917zm9.917 8.75h-7.084v-2.917h7.084v2.917zm4.25-4.375H14.996V13.96H26.33v2.917zm0-4.375H14.996V9.585H26.33v2.917z"/></svg>