<svg width="79" height="79" fill="none" xmlns="http://www.w3.org/2000/svg"><path d="M57.615 78.578c-11.648 0-21.125-9.477-21.125-21.125s9.477-21.125 21.125-21.125S78.74 45.805 78.74 57.453s-9.477 21.125-21.125 21.125zm0-39c-9.857 0-17.875 8.02-17.875 17.875 0 9.854 8.018 17.875 17.875 17.875S75.49 67.307 75.49 57.453s-8.018-17.875-17.875-17.875z" fill="#013068"/><path d="M57.615 65.578a1.626 1.626 0 01-1.625-1.625v-.855c0-3.123 1.641-6.117 4.504-8.21a4.837 4.837 0 001.996-3.935 4.881 4.881 0 00-4.875-4.875 4.881 4.881 0 00-4.875 4.875 1.626 1.626 0 01-3.25 0c0-4.482 3.646-8.125 8.125-8.125 4.478 0 8.125 3.643 8.125 8.125a8.163 8.163 0 01-3.325 6.558c-1.186.868-3.175 2.746-3.175 5.587v.855c0 .897-.728 1.625-1.625 1.625zm0 6.5c-.423 0-.845-.163-1.138-.488-.325-.292-.487-.682-.487-1.137 0-.423.162-.845.487-1.141.423-.455 1.17-.614 1.755-.354.195.065.39.195.52.354.325.296.488.718.488 1.14 0 .456-.163.846-.488 1.138a1.525 1.525 0 01-1.137.488zM33.263 34.703c-.598 0-1.17-.329-1.456-.897a1.627 1.627 0 01.728-2.181L63.39 16.187a1.627 1.627 0 012.35 1.453v13.813a1.626 1.626 0 01-3.25 0V20.269L33.987 34.53a1.615 1.615 0 01-.724.173z" fill="#013068"/><path d="M31.615 65.578a1.67 1.67 0 01-.787-.202l-29.25-16.25a1.632 1.632 0 01-.838-1.423V17.64a1.627 1.627 0 012.35-1.453l30.855 15.438a1.628 1.628 0 01.728 2.18 1.629 1.629 0 01-2.18.729L3.99 20.269v26.478L32.405 62.53a1.625 1.625 0 01-.79 3.048z" fill="#013068"/><path d="M64.115 19.265c-.244 0-.49-.055-.725-.172L33.22 4.02 3.093 19.093a1.63 1.63 0 01-2.18-.725 1.625 1.625 0 01.727-2.18L32.496.75a1.632 1.632 0 011.452 0l30.895 15.438a1.628 1.628 0 01.728 2.18 1.63 1.63 0 01-1.456.897z" fill="#013068"/><path d="M17.13 38.73a1.626 1.626 0 01-1.625-1.626V25.021c0-.614.347-1.177.897-1.453L47.257 8.131a1.625 1.625 0 111.453 2.909L18.755 26.027v11.08a1.62 1.62 0 01-1.625 1.621z" fill="#013068"/></svg>